<?xml version="1.0" encoding="utf-8"?>
<!DOCTYPE svg PUBLIC "-//W3C//DTD SVG 1.1//EN" "http://www.w3.org/Graphics/SVG/1.1/DTD/svg11.dtd">
<svg version="1.1" xmlns="http://www.w3.org/2000/svg" xmlns:xlink="http://www.w3.org/1999/xlink" x="0px" y="0px" viewBox="0 0 1000 1000" enable-background="new 0 0 1000 1000" xml:space="preserve">
<g><g><path d="M976,470.7c-8.6,12.5-19.7,15.4-31.6,14c-1.4-4.8-2.5-10-3.2-15.9c-2.5-20-7.3-38-20-54.1c-31.6-40-81.8-57.2-117.3-93c-10.5-10.6-20.6-24.5-20.9-39.8c-0.3-12.7,3.8-25.7,4.5-38.4c1.2-22.7-15.9-50.1-26.9-69.1c-17.6-30.4-43.6-54.9-77.6-65c-32.2-9.5-67.6-3.4-99.7,3.5c-41.8,9-82.7,21.7-124.8,29.3c-42.9,7.8-87.2,9.5-130.1,1.6c-36.4-6.7-71.9-18.2-107.4-28.3C156.6,97.4,57.3,71,24,151.3c-22.9,55.2-14.4,122,2,177.6c19.6,66.6,54,128.5,69.3,196.2c-6.8-1.2-13.7-4.4-20.7-11.2c6.3,85.6,24.3,166.6,68.5,242.4c25.8,44.4,59.1,82.2,103.5,108.7c71.9,42.8,145,50.5,217.3,20.9c16-6.5,29.5-18.8,43.1-29.5c21.5-17.1,43.9-29.2,64.5-30.2c20.6-1,44.5,8.9,70.4,23.7c16.4,9.3,33,20.1,50.5,25.1c79.4,22.4,149.4,7.8,208.8-41.4c36.7-30.3,59.2-70.9,72.8-117.1C997.1,637.4,992.9,555.7,976,470.7z M280.1,759.1c-79.6-35.6-112-150.8-112-150.8s90.5-41,170.1-5.5c79.6,35.5,118.2,134.2,118.2,134.2S359.7,794.6,280.1,759.1z M839.4,732.3c-69,42.7-179.9-4.9-179.9-4.9s11.4-101.1,80.4-143.7c69-42.7,169.4-10.8,169.4-10.8S908.4,689.6,839.4,732.3z M863.4,458.3c-55.8-20.5-112-31.8-169.4-24.8c-43.9,5.4-86,16.1-125.7,33.4c-14.7,6.5-29.7,10.4-44.9,11.9c-15.4,0-31.3-2.5-47.6-7.4c-43.8-13.3-88.2-19.9-133-21c-58.5-1.5-110.9,15.1-160.5,40.6c-20.1,10.4-40.3,20.6-61.1,29.7c-2.5,1.1-5,2-7.6,2.8c-24-113-100.1-212.6-81.7-333.3c5-32.7,20.1-62.6,53.6-72.5c30.8-9,66-0.8,96.3,6.4c72.6,17.4,141.2,45,217.1,42.9c44.8-1.2,88.9-11.3,132.1-22.3c37.6-9.6,75.6-21.2,114.7-21.7c42-0.5,73.7,21.4,96.1,55.9c17.9,27.5,29.8,55,24.5,88c-4.2,25.9,4.2,43.5,20.6,63.4c34.4,41.5,91.3,56.3,123.4,100.5c10.4,14.3,11.6,31.7,14,48.7C903.9,472.9,883.6,465.7,863.4,458.3z"/></g><g></g><g></g><g></g><g></g><g></g><g></g><g></g><g></g><g></g><g></g><g></g><g></g><g></g><g></g><g></g></g>
</svg>