<?xml version="1.0" standalone="no"?>
<!DOCTYPE svg PUBLIC "-//W3C//DTD SVG 20010904//EN"
 "http://www.w3.org/TR/2001/REC-SVG-20010904/DTD/svg10.dtd">
<svg version="1.0" xmlns="http://www.w3.org/2000/svg"
 width="64.000000pt" height="64.000000pt" viewBox="0 0 64.000000 64.000000"
 preserveAspectRatio="xMidYMid meet">
<g transform="translate(0.000000,64.000000) scale(0.100000,-0.100000)"
fill="#000000" stroke="none">
<path d="M446 554 c-3 -9 -4 -20 0 -25 9 -15 -23 -10 -36 6 -39 47 -41 -32 -3
-88 21 -30 25 -42 16 -55 -11 -17 -19 -18 -136 -7 -43 3 -71 0 -115 -16 -95
-36 -128 -80 -119 -159 4 -29 1 -52 -6 -59 -19 -19 15 -42 84 -57 93 -20 141
-18 137 4 -4 23 35 23 84 0 61 -30 144 -19 91 11 -15 8 -11 13 29 31 44 19 88
64 88 89 0 6 9 15 20 21 14 8 20 21 20 46 0 40 -40 109 -68 119 -20 6 -32 42
-32 95 0 15 -8 34 -18 43 -23 21 -28 21 -36 1z"/>
</g>
</svg>
