<?xml version="1.0" ?><!DOCTYPE svg  PUBLIC '-//W3C//DTD SVG 1.1//EN'  'http://www.w3.org/Graphics/SVG/1.1/DTD/svg11.dtd'><svg enable-background="new 0 0 512 512" height="512px" id="Layer_1" version="1.1" viewBox="0 0 512 512" width="512px" xml:space="preserve" xmlns="http://www.w3.org/2000/svg" xmlns:xlink="http://www.w3.org/1999/xlink"><path clip-rule="evenodd" d="M502.053,234.973c-22.26-60.342-65.8-101.117-124.055-126.49  c-33.835-14.735-69.255-20.022-105.29-9.595c-2.015,0.583-3.975,1.063-5.9,1.448l-22.06-50.547c-1.365,8.2-24.6,18.902-24.6,18.902  l30.23,32.462c-3.52-0.38-7.1-1.107-10.87-2.208c-34.05-9.938-67.585-5.487-100.145,7.542  c-58.72,23.495-102.4,63.285-126.855,121.897c-21.88,52.44-15.11,102.025,20.755,146.82c21.17,26.445,48.505,45.08,78.145,60.695  c9.42,4.96,18.65,10.311,28.235,14.94c14.625,7.069,30.445,6.505,46.185,6.609c12.27,0.075,25.18-5.899,36.615,3.38  c9.125-1.114,18.425-1.505,27.305-3.63c4.68-1.125,8.395-1.56,12.916,0.24c9.405,3.73,19.85,7.39,29.025,2.19  c7.359-4.181,13.949-3.771,21.345-3.035c5.885,0.58,11.82,0.67,17.729,0.984c18.36-0.024,35.211-3.409,52.136-12.439  c31.285-16.7,62.305-33.255,86.795-59.485C510.483,341.971,522.883,291.44,502.053,234.973z M376.168,206.598  c9.87,29.588,19.391,58.138,29.28,87.783c-35.585-1.421-70.17-2.79-106.515-4.235C325.193,261.735,350.253,234.63,376.168,206.598z   M30.903,273.955c8.645-48.29,30.76-88.252,71.465-116.372c41.975-29,88.875-37.265,138.845-31.203  C140.068,131.291,65.993,174.598,30.903,273.955z M213.208,290.15c-36.215,1.45-70.75,2.83-106.565,4.26  c9.895-29.694,19.355-58.095,29.24-87.775C161.698,234.513,186.833,261.66,213.208,290.15z M50.073,333.08  c20.65,59.44,61.75,97.16,123.39,114.79C121.633,446.556,60.917,401.65,50.073,333.08z M305.088,396.24  c-1.47-0.805-3.015-1.479-4.8-2.34c-14.535,15.05-28.939,29.97-45,46.6c-2.755-3.555-5.03-7.02-7.83-9.989  c-10.465-11.141-21.19-22.03-31.615-33.205c-2.675-2.87-4.685-3.24-8.18-1.245c-11.985,6.85-24.19,13.3-36.325,19.885  c-2.78,1.51-5.61,2.936-8.78,4.59c-23.135-33.364-46.04-66.404-68.955-99.444c0.555-0.53,1.11-1.065,1.665-1.601  c5.11,3.92,10.29,7.75,15.32,11.76c17.59,14.03,35.08,28.195,52.79,42.075c1.49,1.165,4.6,1.346,6.53,0.705  c13.09-4.354,26.15-8.83,39.02-13.76c4.59-1.76,7.545-1.01,11.005,2.27c10.84,10.271,21.99,20.21,33.035,30.261  c0.955,0.87,2.04,1.6,3.415,2.66c12.3-11.08,24.575-21.966,36.615-33.101c2.985-2.755,5.5-3.625,9.525-2.15  c13.114,4.82,26.435,9.065,39.575,13.83c3.25,1.176,5.31,0.92,8.095-1.33c20.575-16.659,41.35-33.069,62.075-49.534  c1.58-1.256,3.305-2.325,6.13-2.67c-0.7,1.444-1.226,3.015-2.13,4.314c-17.28,25.05-34.61,50.065-51.926,75.085  c-3.88,5.595-7.92,11.09-11.604,16.811c-2.105,3.265-4.095,3.444-7.385,1.6C332.013,410.815,318.528,403.561,305.088,396.24z   M338.688,448.301c60.265-17.24,101.779-54.551,122.885-113.94C452.894,391.881,402.519,443.485,338.688,448.301z" fill-rule="evenodd"/></svg>